PathFileType	4	(X/Y/Z)	C:/Users/opensim2020/Desktop/walking_exp_matlab/subject02_walking10_straight_02.trc																																																																																																																															
DataRate	CameraRate	NumFrames	NumMarkers	Units	OrigDataRate	OrigDataStartFrame	OrigNumFrames																																																																																																																											
100	100	9	43	mm	100	1505	280																																																																																																																											
Frame#	Time	LFHD			RFHD			LBHD			RBHD			C7			T10			CLAV			STRN			RBAK			LSHO			LUPA			LELB			LFRM			LWRA			LWRB			LFIN			RSHO			RUPA			RELB			RFRM			RWRA			RWRB			RFIN			LASI			RASI			LPSI			RPSI			LTHI			LKNE			LTIB			LANK			LHEE			LTOE			RTHI			RKNE			RTIB			RANK			RHEE			RTOE			*39			*40			*41			*42		
		X1	Y1	Z1	X2	Y2	Z2	X3	Y3	Z3	X4	Y4	Z4	X5	Y5	Z5	X6	Y6	Z6	X7	Y7	Z7	X8	Y8	Z8	X9	Y9	Z9	X10	Y10	Z10	X11	Y11	Z11	X12	Y12	Z12	X13	Y13	Z13	X14	Y14	Z14	X15	Y15	Z15	X16	Y16	Z16	X17	Y17	Z17	X18	Y18	Z18	X19	Y19	Z19	X20	Y20	Z20	X21	Y21	Z21	X22	Y22	Z22	X23	Y23	Z23	X24	Y24	Z24	X25	Y25	Z25	X26	Y26	Z26	X27	Y27	Z27	X28	Y28	Z28	X29	Y29	Z29	X30	Y30	Z30	X31	Y31	Z31	X32	Y32	Z32	X33	Y33	Z33	X34	Y34	Z34	X35	Y35	Z35	X36	Y36	Z36	X37	Y37	Z37	X38	Y38	Z38	X39	Y39	Z39	X40	Y40	Z40	X41	Y41	Z41	X42	Y42	Z42	X43	Y43	Z43
																																																																																																																																		
106	1.05	-294.24982	1732.90918	975.6084	-301.75708	1704.83337	1116.953	-418.61044	1650.28113	953.57336	-437.73151	1619.69751	1093.18982	-469.86838	1511.03491	1016.44891	-530.66357	1237.7981	1020.90515	-332.43085	1438.40649	1008.15125	-285.76984	1264.47424	1014.70642	-534.38696	1338.45593	1075.4353	-390.40292	1487.0592	837.32922	-379.36523	1288.06165	748.16498	-354.28632	1148.30444	730.50958	-300.31552	1025.80481	727.16351	-209.5952	930.43994	771.78278	-249.21588	914.48718	734.85718	-206.09691	865.03082	734.09375	-398.54071	1470.13135	1204.50708	-449.59839	1282.92078	1282.37341	-450.71051	1136.32019	1299.4198	-426.17392	1017.61938	1318.94373	-378.45657	890.38513	1301.51746	-427.76614	887.56421	1329.62524	-391.60687	824.28546	1334.11938	-313.79807	967.15393	879.22906	-294.14493	962.88202	1136.59363	-515.30896	1017.23181	976.13513	-514.1582	1015.93683	1090.06494	-435.45535	664.33881	847.65924	-507.88284	473.42538	885.40399	-616.56482	310.20779	895.96509	-672.54541	92.51035	938.9314	-710.55212	72.78872	992.9375	-524.48621	35.3013	921.03333	-299.97391	668.48102	1221.71326	-240.58008	469.23578	1181.09644	-231.63739	281.84119	1189.61218	-192.45094	92.07166	1159.78687	-205.7166	33.75574	1100.67041	-33.62207	66.83255	1182.69543	-405.40839	1785.42957	1063.45996	-2845.10693	1034.15198	3360.22998	NaN	NaN	NaN	NaN	NaN	NaN
107	1.06	-286.31497	1732.03503	978.29218	-294.18073	1703.8988	1119.41992	-410.90042	1649.50049	955.79309	-429.92474	1618.51416	1095.27966	-461.90405	1509.84021	1018.73132	-521.79364	1236.32593	1023.30511	-324.20486	1437.59839	1010.2049	-276.96225	1263.84729	1016.60712	-525.94818	1337.16345	1078.08545	-382.63052	1486.16968	839.53137	-372.29181	1287.10999	750.76007	-349.05914	1147.02893	733.46002	-296.73611	1023.64587	729.89331	-207.36476	926.98468	774.12811	-247.34959	911.71796	737.3678	-204.84692	861.41797	736.53107	-390.17361	1469.20862	1206.71228	-440.82721	1281.86853	1284.45044	-441.66058	1135.00708	1301.12659	-417.1763	1016.46564	1320.73059	-369.23999	889.44592	1303.35596	-418.43069	886.29547	1331.09998	-382.57068	823.16925	1335.75342	-304.26041	966.46783	881.09265	-283.86044	962.77692	1138.39014	-505.81854	1015.96997	978.89282	-504.20612	1014.73193	1092.7948	-427.87686	663.89117	849.03687	-501.34323	473.47842	886.336	-612.51044	311.96014	896.823	-671.58789	94.73462	939.04193	-709.56445	75.67488	993.02972	-524.42828	35.2524	920.86499	-290.59708	667.12463	1223.21118	-233.427	467.42801	1182.19092	-227.32388	279.47989	1189.17004	-190.54045	89.70393	1158.85413	-205.44913	33.2561	1100.3739	-31.90064	61.38943	1181.61011	-397.99301	1784.45911	1065.58545	-2845.09619	1034.14709	3360.35059	NaN	NaN	NaN	NaN	NaN	NaN
108	1.07	-278.44122	1731.67004	980.94354	-286.52725	1703.13818	1121.86719	-403.01227	1648.65686	958.14691	-421.95154	1617.29285	1097.42444	-453.97174	1508.71484	1021.08435	-512.87628	1235.10938	1025.93884	-315.94415	1436.9165	1012.16809	-268.07336	1263.4458	1018.53503	-517.24298	1335.81909	1080.36731	-374.75671	1485.21252	841.82837	-365.47647	1286.17517	753.34302	-343.81741	1145.65503	736.58179	-293.58356	1021.72278	732.74316	-205.2271	923.57819	776.49561	-245.57054	909.04559	739.789	-203.88779	857.84906	739.07837	-381.67664	1468.30188	1208.95654	-431.96429	1280.9126	1286.9751	-432.74118	1134.14673	1303.41138	-408.00415	1015.44415	1322.71094	-360.17636	888.28168	1304.92017	-409.3992	885.31213	1333.05334	-373.2724	822.01288	1337.36255	-295.0285	965.75116	882.82007	-273.74841	962.38239	1140.09436	-496.25931	1014.7019	981.86267	-494.0827	1013.59796	1095.74133	-420.21106	663.48865	850.53827	-494.53525	473.67123	887.41217	-608.27277	313.88657	897.84723	-670.44562	97.27631	938.98071	-708.2334	78.77758	992.77771	-524.36871	35.25101	920.66632	-281.61505	665.85608	1224.89014	-226.47147	465.92322	1183.99268	-222.30235	277.60742	1188.32336	-186.52989	89.07972	1159.06079	-203.19411	34.99466	1100.35657	-28.08419	54.01786	1182.20886	-390.43561	1783.51318	1068.10559	-2845.19824	1034.06458	3360.40332	NaN	NaN	NaN	NaN	NaN	NaN
109	1.08	-271.12213	1731.64771	983.18982	-278.8363	1702.85571	1124.4646	-395.08618	1648.19836	960.48322	-414.05838	1616.76831	1100.01685	-446.1449	1507.8623	1023.5202	-504.04022	1234.5199	1028.66248	-307.61578	1436.49854	1014.28241	-259.2334	1263.33984	1020.43793	-508.56775	1334.97253	1082.39221	-367.15814	1484.62036	843.87463	-358.59338	1285.19617	755.9563	-338.66034	1144.40918	739.7066	-290.25128	1019.6933	735.54565	-203.40639	920.05371	778.7962	-244.533	906.15643	742.29199	-203.5455	854.29797	741.45532	-373.11157	1467.3739	1211.41052	-423.013	1279.80444	1288.97754	-423.26889	1132.80542	1305.23218	-398.70511	1014.37128	1324.69324	-350.60489	887.39313	1306.84607	-400.0397	884.16357	1334.63611	-363.74939	820.97778	1339.03149	-285.37494	965.07068	884.7431	-263.71756	962.5083	1141.94714	-486.63806	1013.54785	984.94116	-483.74313	1012.69025	1098.86377	-412.30621	663.27954	852.07458	-487.35709	474.05038	888.50366	-603.6405	316.04984	898.95178	-669.06537	100.22305	938.77191	-707.06805	82.52912	992.66016	-524.2702	35.23482	920.51459	-273.52939	665.52338	1226.87427	-219.01927	465.63327	1185.96631	-215.50836	277.31848	1187.93506	-180.86542	89.21857	1161.22388	-200.25391	36.84795	1102.44629	-23.18368	49.96128	1183.16943	-382.98193	1782.87231	1070.71619	-2845.16406	1034.17334	3360.24854	NaN	NaN	NaN	NaN	NaN	NaN
110	1.09	-263.34811	1731.99292	985.92621	-271.14664	1702.90576	1127.06409	-387.17969	1648.28833	962.99109	-406.03027	1616.22571	1101.92883	-438.12244	1507.50415	1025.93054	-495.17142	1234.05273	1031.24829	-299.3833	1436.448	1016.40033	-250.42705	1263.51501	1022.38208	-500.82062	1334.70776	1085.49475	-359.40051	1484.08228	846.01648	-351.94965	1284.36816	758.69617	-333.58755	1143.25757	742.94708	-287.32309	1017.82751	738.47906	-201.7955	916.67322	781.21527	-242.9035	903.67743	744.88654	-203.24622	850.79358	743.94843	-364.55212	1466.59436	1213.78833	-413.86954	1278.86316	1291.34021	-413.88248	1131.83459	1307.40942	-389.33606	1013.41736	1326.55908	-341.12949	886.49805	1308.64307	-390.39017	883.30139	1336.71265	-354.164	820.09332	1340.73376	-275.70062	964.33887	886.84131	-253.75012	962.58734	1143.94495	-476.88452	1012.61536	988.01007	-473.42755	1012.63104	1102.16846	-403.7868	663.17731	853.89484	-479.55154	474.48621	889.83081	-598.54132	318.56827	899.98602	-667.43732	103.58823	938.58575	-705.27307	86.64155	992.34241	-524.15607	35.23616	920.38599	-265.7832	666.0332	1229.37207	-210.30861	466.66803	1188.10559	-207.55304	278.48224	1191.44873	-175.84143	89.09267	1162.82056	-198.10204	37.92929	1103.83655	-19.53297	47.63211	1183.95056	-375.49258	1782.62659	1073.30603	-2845.18042	1033.97864	3360.2644	NaN	NaN	NaN	NaN	NaN	NaN
111	1.1	-255.25212	1732.62219	988.96924	-263.40402	1703.11023	1129.66333	-379.24643	1648.68054	965.35895	-398.24817	1616.48474	1104.72522	-429.83118	1507.61194	1028.38855	-486.33102	1233.85791	1033.68066	-291.21964	1436.74341	1018.59839	-241.61504	1264.04675	1024.4978	-491.91638	1334.53479	1088.0177	-351.89972	1483.97253	847.98804	-345.33899	1283.66504	761.41168	-328.51938	1142.24731	746.23822	-284.60556	1016.42328	741.39886	-200.49205	913.47461	783.67676	-242.39944	901.25958	747.54108	-203.54495	847.72504	746.45111	-355.83759	1466.18054	1216.40991	-404.60846	1278.14758	1293.755	-404.27457	1131.06848	1309.60767	-379.4808	1012.71075	1328.50696	-331.57559	885.74152	1310.2688	-380.62909	882.60907	1338.59766	-344.29507	819.32098	1342.5542	-265.75348	963.703	889.12537	-243.79866	962.99176	1146.04773	-467.24106	1012.14301	991.06036	-463.21222	1013.53802	1105.36365	-394.97046	663.56427	855.8418	-471.28757	475.21127	890.78229	-592.81525	321.41162	900.9577	-665.52228	107.44624	938.36469	-703.44373	91.33146	992.27216	-523.94934	35.24066	920.20386	-258.14688	667.06219	1231.57349	-200.52234	468.43576	1189.828	-198.43651	280.2106	1195.27258	-173.2088	89.38314	1163.53455	-197.46686	38.36922	1104.18628	-18.33752	44.97412	1184.10449	-367.87524	1782.79834	1076.03577	-2845.71704	1034.20447	3357.37109	NaN	NaN	NaN	NaN	NaN	NaN
112	1.11	-247.55138	1732.90918	991.61853	-255.65228	1703.47583	1132.38379	-371.21027	1649.07727	968.03638	-390.36615	1616.99146	1107.21753	-421.4938	1508.04211	1030.90613	-477.55829	1233.89368	1036.02246	-283.02353	1437.31726	1020.83142	-233.59314	1264.72302	1026.64429	-483.14841	1334.48975	1090.29785	-344.25085	1484.0907	849.95477	-338.91003	1283.3125	764.1311	-323.56802	1141.58899	749.58643	-281.87445	1014.64362	744.3717	-198.90294	910.55762	786.17865	-241.59579	899.01813	750.03949	-204.24916	844.75073	748.81458	-347.10596	1466.10083	1218.83105	-395.22604	1277.7467	1296.1355	-394.4046	1130.6416	1311.88745	-369.64655	1012.15802	1330.58484	-321.57101	885.47687	1312.20251	-370.71829	882.23712	1340.52124	-334.39743	819.12421	1344.39844	-256.12537	963.23883	891.82922	-233.83658	963.78705	1148.46228	-457.21716	1012.2243	993.80835	-453.17514	1015.17944	1108.3739	-385.66263	663.54218	857.78998	-461.9816	475.93951	891.81116	-586.42572	324.56473	901.89594	-663.14246	111.73593	937.96246	-700.86261	96.8037	991.90369	-523.72919	35.25286	920.02496	-249.95708	668.45038	1233.20129	-190.27449	470.11725	1191.28345	-190.09578	281.5585	1197.66724	-172.25307	90.00541	1163.30725	-197.49339	38.60879	1104.52722	-17.7068	43.44676	1182.43591	-360.12405	1783.21716	1078.86523	-2845.71704	1034.24792	3357.32373	NaN	NaN	NaN	NaN	NaN	NaN
113	1.12	-239.78412	1733.67334	994.31622	-247.77887	1703.88464	1135.13843	-363.40564	1649.87134	970.42438	-382.44986	1617.16858	1109.21643	-413.23877	1508.68384	1033.37366	-468.70181	1234.02979	1038.19971	-274.80643	1438.05127	1022.95074	-223.86295	1265.86243	1028.72473	-474.52869	1334.93945	1093.41199	-336.46796	1484.46069	851.95966	-332.53735	1283.25293	767.03516	-318.53305	1141.32349	753.08972	-278.86728	1013.69171	747.44482	-198.2903	907.6123	788.56128	-241.33879	897.29089	752.72449	-205.17075	842.18274	751.27191	-338.26996	1466.63208	1221.8407	-385.49847	1277.61536	1298.24365	-384.21948	1130.55713	1314.09229	-359.5686	1012.08685	1332.46313	-311.58929	885.41779	1314.00037	-360.53806	882.19403	1342.56421	-324.31085	819.12878	1346.2135	-245.7887	962.78101	894.43115	-223.95459	964.8363	1151.03296	-446.93744	1012.87964	996.25208	-443.86343	1017.33643	1111.14612	-375.83713	663.9281	859.77802	-451.77264	476.7659	892.58337	-579.16608	328.01733	902.49115	-660.32703	116.57253	937.51758	-697.80548	102.68761	991.54901	-523.42786	35.27163	919.81421	-240.50894	669.90375	1234.50146	-180.34906	471.1088	1192.05615	-182.90633	282.33585	1199.24072	-170.34067	90.83055	1163.37524	-197.13461	38.88263	1104.83105	-16.05655	42.65145	1181.23633	-352.29883	1783.75183	1081.979	-2845.07764	1034.22815	3360.31348	NaN	NaN	NaN	NaN	NaN	NaN
114	1.13	-231.99037	1734.54529	996.85596	-239.99393	1704.58545	1137.76306	-355.32813	1650.66479	972.86047	-374.46713	1617.67444	1111.43494	-405.13614	1509.25854	1035.74719	-459.99042	1234.30493	1040.41248	-266.58621	1438.9563	1025.0415	-215.87207	1266.93726	1031.04944	-465.62839	1335.04883	1095.45605	-328.58112	1485.12073	854.11877	-326.26337	1283.40344	769.82288	-313.56989	1141.35681	756.57288	-276.85446	1013.16113	750.72089	-198.46571	905.06006	790.95612	-241.45169	895.98816	755.39758	-206.49094	840.27283	753.47491	-329.47559	1466.95093	1223.65222	-375.74542	1278.06335	1300.90576	-373.82346	1130.89221	1316.23889	-349.10001	1012.49713	1334.66528	-301.46768	885.69458	1315.81628	-350.18176	882.62769	1344.82532	-313.98013	819.51245	1348.20776	-235.67752	962.82721	897.58539	-214.14983	966.23169	1153.80566	-436.74908	1013.77924	998.38446	-434.20978	1019.18481	1113.68811	-365.43475	664.20032	861.76361	-440.53668	477.65784	893.08875	-571.08533	331.75153	903.15735	-656.9361	121.83143	936.8783	-694.10907	109.23955	991.07501	-523.10248	35.23983	919.54718	-229.85692	671.46783	1236.21582	-171.05847	471.61548	1193.21326	-176.84772	282.77881	1200.23096	-168.56628	91.13717	1163.51245	-196.52534	39.02208	1105.09302	-14.73267	41.89198	1181.06494	-344.55045	1784.32434	1084.58167	-2845.12402	1034.25073	3360.34619	NaN	NaN	NaN	NaN	NaN	NaN
